<mxfile host="app.diagrams.net" agent="Mozilla/5.0 (Windows NT 10.0; Win64; x64) AppleWebKit/537.36 (KHTML, like Gecko) Chrome/128.0.0.0 YaBrowser/24.10.0.0 Safari/537.36" version="24.8.3">
  <diagram name="Страница — 1" id="RUo1CpLkM_V1wxJBxDX-">
    <mxGraphModel dx="2514" dy="902" grid="1" gridSize="10" guides="1" tooltips="1" connect="1" arrows="1" fold="1" page="1" pageScale="1" pageWidth="827" pageHeight="1169" math="0" shadow="0">
      <root>
        <mxCell id="0" />
        <mxCell id="1" parent="0" />
        <mxCell id="QXPBxTYljlFPi_YN_TFN-3" value="" style="rounded=0;whiteSpace=wrap;html=1;fillColor=#f5f5f5;fontColor=#333333;strokeColor=#666666;movable=0;resizable=0;rotatable=0;deletable=0;editable=0;locked=1;connectable=0;" vertex="1" parent="1">
          <mxGeometry x="-80" y="100" width="470" height="350" as="geometry" />
        </mxCell>
        <mxCell id="QXPBxTYljlFPi_YN_TFN-27" style="edgeStyle=orthogonalEdgeStyle;rounded=0;orthogonalLoop=1;jettySize=auto;html=1;exitX=1;exitY=0.75;exitDx=0;exitDy=0;entryX=0;entryY=0.5;entryDx=0;entryDy=0;fillColor=#dae8fc;strokeColor=#6c8ebf;" edge="1" parent="1" source="QXPBxTYljlFPi_YN_TFN-1" target="QXPBxTYljlFPi_YN_TFN-20">
          <mxGeometry relative="1" as="geometry" />
        </mxCell>
        <mxCell id="QXPBxTYljlFPi_YN_TFN-53" style="edgeStyle=orthogonalEdgeStyle;rounded=0;orthogonalLoop=1;jettySize=auto;html=1;exitX=0;exitY=0.5;exitDx=0;exitDy=0;entryX=0.5;entryY=1;entryDx=0;entryDy=0;startArrow=classic;startFill=1;" edge="1" parent="1" source="QXPBxTYljlFPi_YN_TFN-1" target="QXPBxTYljlFPi_YN_TFN-52">
          <mxGeometry relative="1" as="geometry" />
        </mxCell>
        <mxCell id="QXPBxTYljlFPi_YN_TFN-1" value="&lt;i&gt;precompile&lt;/i&gt;&lt;i&gt;d&lt;/i&gt;&lt;i&gt;&amp;nbsp;&lt;/i&gt;&lt;i&gt;lib(rust)&lt;br&gt;&lt;/i&gt;&lt;b&gt;SERVER&lt;/b&gt;" style="rounded=0;whiteSpace=wrap;html=1;" vertex="1" parent="1">
          <mxGeometry x="170" y="320" width="130" height="80" as="geometry" />
        </mxCell>
        <mxCell id="QXPBxTYljlFPi_YN_TFN-2" value="&lt;i&gt;&amp;nbsp;(Java,C#, JS...)&lt;br&gt;&lt;/i&gt;&lt;b&gt;GAME LOGIC&lt;/b&gt;" style="rounded=0;whiteSpace=wrap;html=1;" vertex="1" parent="1">
          <mxGeometry x="-50" y="170" width="160" height="80" as="geometry" />
        </mxCell>
        <mxCell id="QXPBxTYljlFPi_YN_TFN-6" value="" style="verticalLabelPosition=bottom;verticalAlign=top;html=1;shape=mxgraph.basic.layered_rect;dx=10;outlineConnect=0;whiteSpace=wrap;" vertex="1" parent="1">
          <mxGeometry x="210" y="130" width="100" height="60" as="geometry" />
        </mxCell>
        <mxCell id="QXPBxTYljlFPi_YN_TFN-7" value="Protobuf-files" style="text;html=1;align=center;verticalAlign=middle;resizable=0;points=[];autosize=1;strokeColor=none;fillColor=none;" vertex="1" parent="1">
          <mxGeometry x="210" y="140" width="90" height="30" as="geometry" />
        </mxCell>
        <mxCell id="QXPBxTYljlFPi_YN_TFN-8" style="edgeStyle=orthogonalEdgeStyle;rounded=0;orthogonalLoop=1;jettySize=auto;html=1;exitX=0.5;exitY=0;exitDx=0;exitDy=0;entryX=0.005;entryY=0.325;entryDx=0;entryDy=0;entryPerimeter=0;" edge="1" parent="1" source="QXPBxTYljlFPi_YN_TFN-2" target="QXPBxTYljlFPi_YN_TFN-7">
          <mxGeometry relative="1" as="geometry" />
        </mxCell>
        <mxCell id="QXPBxTYljlFPi_YN_TFN-9" value="Generates from &lt;br style=&quot;font-size: 9px;&quot;&gt;classes, structs, etc" style="text;html=1;align=center;verticalAlign=middle;resizable=0;points=[];autosize=1;strokeColor=none;fillColor=none;fontSize=9;" vertex="1" parent="1">
          <mxGeometry x="100" y="114" width="100" height="40" as="geometry" />
        </mxCell>
        <mxCell id="QXPBxTYljlFPi_YN_TFN-10" value="" style="verticalLabelPosition=bottom;verticalAlign=top;html=1;shape=mxgraph.basic.rect;fillColor2=none;strokeWidth=1;size=20;indent=5;fillColor=#d5e8d4;strokeColor=#82b366;movable=0;resizable=0;rotatable=0;deletable=0;editable=0;locked=1;connectable=0;" vertex="1" parent="1">
          <mxGeometry x="830" y="100" width="440" height="350" as="geometry" />
        </mxCell>
        <mxCell id="QXPBxTYljlFPi_YN_TFN-14" value="" style="edgeStyle=orthogonalEdgeStyle;rounded=0;orthogonalLoop=1;jettySize=auto;html=1;endArrow=none;endFill=0;" edge="1" parent="1" source="QXPBxTYljlFPi_YN_TFN-12" target="QXPBxTYljlFPi_YN_TFN-13">
          <mxGeometry relative="1" as="geometry" />
        </mxCell>
        <mxCell id="QXPBxTYljlFPi_YN_TFN-12" value="&lt;i&gt;(auxiliary util)&lt;/i&gt;&lt;br&gt;&lt;b&gt;omgpp&lt;/b&gt;" style="rounded=0;whiteSpace=wrap;html=1;" vertex="1" parent="1">
          <mxGeometry x="572.5" y="99" width="120" height="60" as="geometry" />
        </mxCell>
        <mxCell id="QXPBxTYljlFPi_YN_TFN-28" style="edgeStyle=orthogonalEdgeStyle;rounded=0;orthogonalLoop=1;jettySize=auto;html=1;exitX=0.5;exitY=1;exitDx=0;exitDy=0;entryX=0.5;entryY=0;entryDx=0;entryDy=0;" edge="1" parent="1" source="QXPBxTYljlFPi_YN_TFN-13" target="QXPBxTYljlFPi_YN_TFN-18">
          <mxGeometry relative="1" as="geometry" />
        </mxCell>
        <mxCell id="QXPBxTYljlFPi_YN_TFN-13" value="omgpp init [Java,C#,JS,Python] ./outdir &lt;b&gt;IP:PORT&lt;/b&gt;&amp;nbsp;" style="rounded=0;whiteSpace=wrap;html=1;fillColor=#f5f5f5;dashed=1;dashPattern=8 8;strokeColor=#666666;fontColor=#333333;" vertex="1" parent="1">
          <mxGeometry x="490" y="180" width="285" height="60" as="geometry" />
        </mxCell>
        <mxCell id="QXPBxTYljlFPi_YN_TFN-15" value="listens&lt;b&gt; IP:PORT&lt;/b&gt;" style="text;html=1;align=center;verticalAlign=middle;resizable=0;points=[];autosize=1;strokeColor=none;fillColor=none;" vertex="1" parent="1">
          <mxGeometry x="165" y="290" width="110" height="30" as="geometry" />
        </mxCell>
        <mxCell id="QXPBxTYljlFPi_YN_TFN-19" style="edgeStyle=orthogonalEdgeStyle;rounded=0;orthogonalLoop=1;jettySize=auto;html=1;exitX=0;exitY=0.5;exitDx=0;exitDy=0;entryX=1;entryY=0.25;entryDx=0;entryDy=0;fillColor=#d5e8d4;strokeColor=#82b366;" edge="1" parent="1" source="QXPBxTYljlFPi_YN_TFN-18" target="QXPBxTYljlFPi_YN_TFN-1">
          <mxGeometry relative="1" as="geometry" />
        </mxCell>
        <mxCell id="QXPBxTYljlFPi_YN_TFN-21" value="" style="edgeStyle=orthogonalEdgeStyle;rounded=0;orthogonalLoop=1;jettySize=auto;html=1;" edge="1" parent="1" source="QXPBxTYljlFPi_YN_TFN-18" target="QXPBxTYljlFPi_YN_TFN-20">
          <mxGeometry relative="1" as="geometry" />
        </mxCell>
        <mxCell id="QXPBxTYljlFPi_YN_TFN-18" value="Connects to server" style="rounded=0;whiteSpace=wrap;html=1;" vertex="1" parent="1">
          <mxGeometry x="572.5" y="270" width="120" height="40" as="geometry" />
        </mxCell>
        <mxCell id="QXPBxTYljlFPi_YN_TFN-29" style="edgeStyle=orthogonalEdgeStyle;rounded=0;orthogonalLoop=1;jettySize=auto;html=1;exitX=0.5;exitY=1;exitDx=0;exitDy=0;entryX=0.5;entryY=0;entryDx=0;entryDy=0;" edge="1" parent="1" source="QXPBxTYljlFPi_YN_TFN-20" target="QXPBxTYljlFPi_YN_TFN-23">
          <mxGeometry relative="1" as="geometry" />
        </mxCell>
        <mxCell id="QXPBxTYljlFPi_YN_TFN-20" value="Retrieves Protobuffs" style="rounded=0;whiteSpace=wrap;html=1;" vertex="1" parent="1">
          <mxGeometry x="572.5" y="360" width="120" height="40" as="geometry" />
        </mxCell>
        <mxCell id="QXPBxTYljlFPi_YN_TFN-42" style="edgeStyle=orthogonalEdgeStyle;rounded=0;orthogonalLoop=1;jettySize=auto;html=1;exitX=1;exitY=0.5;exitDx=0;exitDy=0;entryX=0;entryY=0.5;entryDx=0;entryDy=0;" edge="1" parent="1" source="QXPBxTYljlFPi_YN_TFN-23" target="QXPBxTYljlFPi_YN_TFN-41">
          <mxGeometry relative="1" as="geometry">
            <Array as="points">
              <mxPoint x="790" y="450" />
              <mxPoint x="790" y="220" />
            </Array>
          </mxGeometry>
        </mxCell>
        <mxCell id="QXPBxTYljlFPi_YN_TFN-23" value="Creates client project" style="rounded=0;whiteSpace=wrap;html=1;" vertex="1" parent="1">
          <mxGeometry x="572.5" y="430" width="120" height="40" as="geometry" />
        </mxCell>
        <mxCell id="QXPBxTYljlFPi_YN_TFN-26" style="edgeStyle=orthogonalEdgeStyle;rounded=0;orthogonalLoop=1;jettySize=auto;html=1;exitX=1;exitY=0.75;exitDx=0;exitDy=0;entryX=0;entryY=0;entryDx=100;entryDy=35;entryPerimeter=0;fillColor=#dae8fc;strokeColor=#6c8ebf;" edge="1" parent="1" source="QXPBxTYljlFPi_YN_TFN-1" target="QXPBxTYljlFPi_YN_TFN-6">
          <mxGeometry relative="1" as="geometry" />
        </mxCell>
        <mxCell id="QXPBxTYljlFPi_YN_TFN-41" value="" style="rounded=0;whiteSpace=wrap;html=1;dashed=1;fillColor=none;movable=0;resizable=0;rotatable=0;deletable=0;editable=0;locked=1;connectable=0;" vertex="1" parent="1">
          <mxGeometry x="850" y="130" width="367" height="180" as="geometry" />
        </mxCell>
        <mxCell id="QXPBxTYljlFPi_YN_TFN-49" style="edgeStyle=orthogonalEdgeStyle;rounded=0;orthogonalLoop=1;jettySize=auto;html=1;exitX=1;exitY=0.5;exitDx=0;exitDy=0;entryX=0.5;entryY=1;entryDx=0;entryDy=0;fillColor=#b0e3e6;strokeColor=#0e8088;endSize=6;jumpSize=14;startArrow=classic;startFill=1;strokeWidth=2;" edge="1" parent="1" source="QXPBxTYljlFPi_YN_TFN-31" target="QXPBxTYljlFPi_YN_TFN-1">
          <mxGeometry relative="1" as="geometry">
            <Array as="points">
              <mxPoint x="1200" y="175" />
              <mxPoint x="1200" y="540" />
              <mxPoint x="235" y="540" />
            </Array>
          </mxGeometry>
        </mxCell>
        <mxCell id="QXPBxTYljlFPi_YN_TFN-50" style="edgeStyle=orthogonalEdgeStyle;rounded=0;orthogonalLoop=1;jettySize=auto;html=1;exitX=0.5;exitY=1;exitDx=0;exitDy=0;entryX=0.5;entryY=0;entryDx=0;entryDy=0;startArrow=classic;startFill=1;" edge="1" parent="1" source="QXPBxTYljlFPi_YN_TFN-31" target="QXPBxTYljlFPi_YN_TFN-35">
          <mxGeometry relative="1" as="geometry" />
        </mxCell>
        <mxCell id="QXPBxTYljlFPi_YN_TFN-31" value="&lt;i&gt;precompile&lt;/i&gt;&lt;i&gt;d&lt;/i&gt;&lt;i&gt;&amp;nbsp;lib(rust)&lt;/i&gt;&lt;br&gt;&lt;b&gt;CLIENT&lt;/b&gt;" style="rounded=0;whiteSpace=wrap;html=1;" vertex="1" parent="1">
          <mxGeometry x="1052" y="144" width="130" height="61" as="geometry" />
        </mxCell>
        <mxCell id="QXPBxTYljlFPi_YN_TFN-47" style="edgeStyle=orthogonalEdgeStyle;rounded=0;orthogonalLoop=1;jettySize=auto;html=1;exitX=0.5;exitY=1;exitDx=0;exitDy=0;entryX=0;entryY=0.5;entryDx=0;entryDy=0;" edge="1" parent="1" source="QXPBxTYljlFPi_YN_TFN-32" target="QXPBxTYljlFPi_YN_TFN-39">
          <mxGeometry relative="1" as="geometry" />
        </mxCell>
        <mxCell id="QXPBxTYljlFPi_YN_TFN-32" value="Compiled Protobuffs&lt;br&gt;(Classes and Structs)" style="rounded=0;whiteSpace=wrap;html=1;" vertex="1" parent="1">
          <mxGeometry x="860" y="148" width="120" height="60" as="geometry" />
        </mxCell>
        <mxCell id="QXPBxTYljlFPi_YN_TFN-48" style="edgeStyle=orthogonalEdgeStyle;rounded=0;orthogonalLoop=1;jettySize=auto;html=1;exitX=0.5;exitY=1;exitDx=0;exitDy=0;entryX=0.5;entryY=0;entryDx=0;entryDy=0;" edge="1" parent="1" source="QXPBxTYljlFPi_YN_TFN-35" target="QXPBxTYljlFPi_YN_TFN-39">
          <mxGeometry relative="1" as="geometry" />
        </mxCell>
        <mxCell id="QXPBxTYljlFPi_YN_TFN-35" value="&lt;i&gt;lib or classes&lt;/i&gt;&lt;br&gt;&lt;b&gt;TARGET LANGUAGE CLIENT BINDINGS&lt;/b&gt;" style="rounded=0;whiteSpace=wrap;html=1;" vertex="1" parent="1">
          <mxGeometry x="1052.5" y="239" width="130" height="61" as="geometry" />
        </mxCell>
        <mxCell id="QXPBxTYljlFPi_YN_TFN-36" value="./outdir" style="rounded=0;whiteSpace=wrap;html=1;" vertex="1" parent="1">
          <mxGeometry x="830" y="419" width="130" height="31" as="geometry" />
        </mxCell>
        <mxCell id="QXPBxTYljlFPi_YN_TFN-37" value="&lt;font style=&quot;font-size: 25px;&quot;&gt;Player&lt;/font&gt;" style="text;html=1;align=center;verticalAlign=middle;resizable=0;points=[];autosize=1;strokeColor=none;fillColor=none;" vertex="1" parent="1">
          <mxGeometry x="1005" y="40" width="90" height="40" as="geometry" />
        </mxCell>
        <mxCell id="QXPBxTYljlFPi_YN_TFN-38" value="&lt;font style=&quot;font-size: 25px;&quot;&gt;Server&lt;/font&gt;" style="text;html=1;align=center;verticalAlign=middle;resizable=0;points=[];autosize=1;strokeColor=none;fillColor=none;" vertex="1" parent="1">
          <mxGeometry x="105" y="50" width="100" height="40" as="geometry" />
        </mxCell>
        <mxCell id="QXPBxTYljlFPi_YN_TFN-39" value="&lt;i&gt;(target language)&lt;/i&gt;&lt;br&gt;&lt;b&gt;GAMEPLAY LOGIC&lt;/b&gt;" style="rounded=0;whiteSpace=wrap;html=1;" vertex="1" parent="1">
          <mxGeometry x="1050" y="330" width="130" height="60" as="geometry" />
        </mxCell>
        <mxCell id="QXPBxTYljlFPi_YN_TFN-43" value="&lt;i&gt;generated by&lt;br&gt;&lt;b&gt;omgpp&lt;/b&gt;&lt;/i&gt;" style="text;html=1;align=center;verticalAlign=middle;resizable=0;points=[];autosize=1;strokeColor=none;fillColor=none;" vertex="1" parent="1">
          <mxGeometry x="850" y="260" width="90" height="40" as="geometry" />
        </mxCell>
        <mxCell id="QXPBxTYljlFPi_YN_TFN-51" value="&lt;b&gt;sends to each other commands&lt;br&gt;{COMMAND: protobuf_struct}&lt;/b&gt;" style="text;html=1;align=center;verticalAlign=middle;resizable=0;points=[];autosize=1;strokeColor=none;fillColor=none;" vertex="1" parent="1">
          <mxGeometry x="545" y="541" width="200" height="40" as="geometry" />
        </mxCell>
        <mxCell id="QXPBxTYljlFPi_YN_TFN-55" style="edgeStyle=orthogonalEdgeStyle;rounded=0;orthogonalLoop=1;jettySize=auto;html=1;exitX=0.5;exitY=0;exitDx=0;exitDy=0;startArrow=classic;startFill=1;" edge="1" parent="1" source="QXPBxTYljlFPi_YN_TFN-52" target="QXPBxTYljlFPi_YN_TFN-2">
          <mxGeometry relative="1" as="geometry" />
        </mxCell>
        <mxCell id="QXPBxTYljlFPi_YN_TFN-52" value="&lt;i&gt;lib or classes&lt;/i&gt;&lt;br&gt;&lt;b&gt;TARGET LANGUAGE SERVER BINDINGS&lt;/b&gt;" style="rounded=0;whiteSpace=wrap;html=1;" vertex="1" parent="1">
          <mxGeometry x="-35" y="274.5" width="130" height="61" as="geometry" />
        </mxCell>
      </root>
    </mxGraphModel>
  </diagram>
</mxfile>
